<svg width="20" height="20" viewBox="0 0 20 20" fill="none" xmlns="http://www.w3.org/2000/svg">
<path d="M12.5 10C12.5 8.61667 11.3833 7.5 10 7.5C8.61667 7.5 7.5 8.61667 7.5 10C7.5 11.3833 8.61667 12.5 10 12.5C10.3417 12.5 10.675 12.4333 10.975 12.3" stroke="#3D3D3D" stroke-width="1.5" stroke-miterlimit="10" stroke-linecap="round" stroke-linejoin="round"/>
<path d="M5.73242 17.15L6.64075 17.675C7.29909 18.0667 8.14909 17.8333 8.54076 17.175L8.63242 17.0167C9.38242 15.7083 10.6158 15.7083 11.3741 17.0167L11.4658 17.175C11.8574 17.8333 12.7074 18.0667 13.3658 17.675L14.8074 16.85C15.5658 16.4167 15.8241 15.4417 15.3908 14.6917C14.6324 13.3833 15.2491 12.3167 16.7574 12.3167C17.6241 12.3167 18.3408 11.6083 18.3408 10.7333V9.26666C18.3408 8.4 17.6324 7.68333 16.7574 7.68333C15.9158 7.68333 15.3491 7.35 15.1491 6.825C14.9908 6.41666 15.0574 5.88333 15.3908 5.30833C15.8241 4.55 15.5658 3.58333 14.8074 3.15L14.1324 2.76666" stroke="#3D3D3D" stroke-width="1.5" stroke-miterlimit="10" stroke-linecap="round" stroke-linejoin="round"/>
<path d="M11.366 2.98333C10.616 4.29166 9.38268 4.29166 8.62435 2.98333L8.53268 2.825C8.14935 2.16666 7.29935 1.93333 6.64102 2.325L5.19935 3.15C4.44102 3.58333 4.18268 4.55833 4.61602 5.31667C5.37435 6.61667 4.75768 7.68333 3.24935 7.68333C2.38268 7.68333 1.66602 8.39167 1.66602 9.26667V10.7333C1.66602 11.6 2.37435 12.3167 3.24935 12.3167C4.75768 12.3167 5.37435 13.3833 4.61602 14.6917" stroke="#3D3D3D" stroke-width="1.5" stroke-miterlimit="10" stroke-linecap="round" stroke-linejoin="round"/>
</svg>
